<svg width="44" height="44" viewBox="0 0 44 44" fill="none" xmlns="http://www.w3.org/2000/svg">
<path d="M22 0C9.84677 0 0 9.84677 0 22C0 34.1532 9.84677 44 22 44C34.1532 44 44 34.1532 44 22C44 9.84677 34.1532 0 22 0ZM22 8.51613C26.3113 8.51613 29.8065 12.0113 29.8065 16.3226C29.8065 20.6339 26.3113 24.129 22 24.129C17.6887 24.129 14.1935 20.6339 14.1935 16.3226C14.1935 12.0113 17.6887 8.51613 22 8.51613ZM22 39.0323C16.7927 39.0323 12.1266 36.6726 9.00403 32.9823C10.6718 29.8419 13.9363 27.6774 17.7419 27.6774C17.9548 27.6774 18.1677 27.7129 18.3718 27.775C19.525 28.1476 20.7315 28.3871 22 28.3871C23.2685 28.3871 24.4839 28.1476 25.6282 27.775C25.8323 27.7129 26.0452 27.6774 26.2581 27.6774C30.0637 27.6774 33.3282 29.8419 34.996 32.9823C31.8734 36.6726 27.2073 39.0323 22 39.0323Z" fill="black"/>
</svg>
